<?xml version="1.0" standalone="no"?>
<!DOCTYPE svg PUBLIC "-//W3C//DTD SVG 20010904//EN"
 "http://www.w3.org/TR/2001/REC-SVG-20010904/DTD/svg10.dtd">
<svg version="1.0" xmlns="http://www.w3.org/2000/svg"
 width="35px" height="35px" viewBox="0 0 512.000000 512.000000"
 preserveAspectRatio="xMidYMid meet">

<g transform="translate(0.000000,512.000000) scale(0.100000,-0.100000)"
fill="#000000" stroke="none">
<path d="M0 2560 l0 -2560 2560 0 2560 0 0 2560 0 2560 -2560 0 -2560 0 0
-2560z m3902 268 c54 -24 123 -92 149 -146 32 -67 33 -179 1 -243 -30 -61 -85
-117 -141 -143 l-46 -21 -1310 0 -1310 0 -43 23 c-169 90 -213 307 -91 446 43
49 78 71 144 92 32 10 307 12 1325 11 1178 -2 1288 -3 1322 -19z"/>
</g>
</svg>
