<?xml version="1.0" standalone="no"?>
<!DOCTYPE svg PUBLIC "-//W3C//DTD SVG 20010904//EN"
 "http://www.w3.org/TR/2001/REC-SVG-20010904/DTD/svg10.dtd">
<svg version="1.0" xmlns="http://www.w3.org/2000/svg"
 width="35px" height="35px" viewBox="0 0 512.000000 512.000000"
 preserveAspectRatio="xMidYMid meet">

<g transform="translate(0.000000,512.000000) scale(0.100000,-0.100000)"
fill="#000000" stroke="none">
<path d="M0 2560 l0 -2560 2560 0 2560 0 0 2560 0 2560 -2560 0 -2560 0 0
-2560z m2660 1509 c55 -25 114 -80 143 -134 22 -39 22 -48 25 -562 l3 -522
512 -3 c510 -3 512 -3 562 -26 64 -29 110 -74 143 -137 36 -69 38 -179 4 -246
-30 -61 -85 -117 -141 -143 -45 -20 -61 -21 -563 -24 l-517 -3 -3 -522 c-3
-513 -3 -523 -25 -562 -54 -101 -147 -158 -258 -158 -120 -1 -203 51 -257 161
l-33 67 -3 507 -4 507 -516 3 -517 3 -53 30 c-64 35 -97 71 -130 144 -21 45
-24 64 -20 125 8 112 65 197 167 248 l46 23 512 3 512 3 3 507 3 507 26 55
c52 111 144 170 264 170 49 0 84 -7 115 -21z"/>
</g>
</svg>
